Coordinates
version=1
nRows=11
nColumns=63
inDegrees=yes

Units are S.I. units (second, meters, Newtons, ...)
If the header above contains a line with 'inDegrees', this indicates whether rotational values are in degrees (yes) or radians (no).

endheader
time	pelvis_tilt	pelvis_list	pelvis_rotation	pelvis_tx	pelvis_ty	pelvis_tz	hip_flexion_r	hip_adduction_r	hip_rotation_r	knee_angle_r	knee_angle_r_beta	ankle_angle_r	subtalar_angle_r	mtp_angle_r	hip_flexion_l	hip_adduction_l	hip_rotation_l	knee_angle_l	knee_angle_l_beta	ankle_angle_l	subtalar_angle_l	mtp_angle_l	L5_S1_Flex_Ext	L5_S1_Lat_Bending	L5_S1_axial_rotation	L4_L5_Flex_Ext	L4_L5_Lat_Bending	L4_L5_axial_rotation	L3_L4_Flex_Ext	L3_L4_Lat_Bending	L3_L4_axial_rotation	L2_L3_Flex_Ext	L2_L3_Lat_Bending	L2_L3_axial_rotation	L1_L2_Flex_Ext	L1_L2_Lat_Bending	L1_L2_axial_rotation	L1_T12_Flex_Ext	L1_T12_Lat_Bending	L1_T12_axial_rotation	Abs_r3	Abs_r2	Abs_r1	Abs_t1	Abs_t2	neck_flexion	neck_bending	neck_rotation	arm_flex_r	arm_add_r	arm_rot_r	elbow_flex_r	pro_sup_r	wrist_flex_r	wrist_dev_r	arm_flex_l	arm_add_l	arm_rot_l	elbow_flex_l	pro_sup_l	wrist_flex_l	wrist_dev_l
      0.00000000	     -2.35505044	     -3.81010975	     96.78534974	      0.27478792	      0.88752503	      0.57514836	      7.06948590	     -8.78065879	    -17.28600233	     17.91348138	      0.31264923	     41.99070521	      1.45878819	      0.00000000	      7.46538924	      3.30175035	      4.57601589	     11.55086023	      0.20160054	     41.03357192	     16.28388613	      0.00000000	      0.18610709	     -0.24741214	     -2.15208182	      0.34561947	     -0.32905814	     -2.28658694	      0.30575533	     -0.60155787	     -2.28658694	      0.21270179	     -0.60155787	     -1.88307159	      0.17281904	     -0.50452283	     -1.74856648	      0.10634159	     -0.38324140	     -1.61406137	      1.32934430	     -2.79877557	    -11.96923347	      0.00000000	      0.00000000	     27.81073635	     -2.83424536	     -4.75940674	      7.81774805	    -13.56790851	     49.42398861	     50.64874876	     47.27988156	     14.44135213	     21.42537056	      1.30768746	    -15.07928854	     43.99053261	     58.81486716	     52.03462182	      6.13932732	     12.06505136
      0.01694915	     -2.20037787	     -3.45113182	     96.18315024	      0.27539245	      0.88800422	      0.57389970	      7.17236499	     -8.79462446	    -17.66692050	     18.46342518	      0.32224756	     42.61895624	      2.44322193	      0.00000000	      6.83813581	      3.12077279	      4.61051016	     11.07120266	      0.19322894	     40.81712345	     16.21479887	      0.00000000	      0.19417738	     -0.20800961	     -2.26482551	      0.36060681	     -0.27665278	     -2.40637710	      0.31901401	     -0.50575457	     -2.40637710	      0.22192532	     -0.50575457	     -1.98172232	      0.18031311	     -0.42417320	     -1.84017073	      0.11095295	     -0.32220689	     -1.69861913	      1.38698958	     -2.35304632	    -12.59628003	      0.00000000	      0.00000000	     27.62103569	     -2.04123224	     -2.06599079	      7.88570773	    -13.50496897	     50.38345843	     50.86053922	     45.97569540	     12.85584171	     21.33398391	     -0.39328118	    -14.79724304	     40.40747726	     60.14779969	     52.61038986	      4.50208898	     11.37119052
      0.03389831	     -1.95350494	     -3.12083887	     95.86958984	      0.27598965	      0.88842958	      0.57302484	      7.21435891	     -8.59539253	    -17.58187066	     18.92679875	      0.33033496	     42.93187979	      2.62437194	      0.00000000	      6.39002536	      2.81990426	      4.63070969	     10.95155087	      0.19114062	     40.69081730	     16.19663604	      0.00000000	      0.18279981	     -0.17562115	     -2.27392594	      0.33947752	     -0.23357613	     -2.41604632	      0.30032180	     -0.42700527	     -2.41604632	      0.20892190	     -0.42700527	     -1.98968520	      0.16974790	     -0.35812665	     -1.84756483	      0.10445181	     -0.27203716	     -1.70544446	      1.30572073	     -1.98666158	    -12.64689392	      0.00000000	      0.00000000	     27.37354017	     -2.04466956	     -1.49413019	      7.61334510	    -13.43263301	     50.10381001	     50.91946375	     45.85043889	     12.62826212	     21.06187882	     -0.72769724	    -14.84888587	     39.64710431	     60.55580455	     52.50609951	      4.37470615	     10.88737650
      0.05084746	     -1.86987937	     -2.99707763	     94.99561423	      0.27677272	      0.88866021	      0.57179635	      7.49403816	     -8.57770809	    -17.14213021	     19.34338704	      0.33760579	     43.08478217	      3.38060909	      0.00000000	      5.83422720	      2.72975817	      4.79323563	     10.37814251	      0.18113276	     40.33716604	     15.16713828	      0.00000000	      0.20271647	     -0.13734057	     -2.25667894	      0.37646476	     -0.18266296	     -2.39772137	      0.33304289	     -0.33392986	     -2.39772137	      0.23168466	     -0.33392986	     -1.97459407	      0.18824252	     -0.28006489	     -1.83355164	      0.11583219	     -0.21274054	     -1.69250920	      1.44798349	     -1.55362399	    -12.55097126	      0.00000000	      0.00000000	     27.29737739	     -1.37801996	      1.24970731	      7.71113189	    -13.64053373	     50.88997365	     51.20833120	     45.88883001	     11.69802045	     20.58413769	     -1.57397143	    -14.40018581	     38.40851366	     60.60331987	     53.09800462	      3.69291382	     10.03001514
      0.06779661	     -1.66711621	     -2.80459157	     94.73250001	      0.27717470	      0.88897216	      0.57114548	      7.50060172	     -8.36941985	    -16.92955876	     19.55944274	      0.34137668	     43.09441991	      3.63059297	      0.00000000	      5.50266883	      2.49505108	      4.93117907	     10.35793193	      0.18078002	     40.18989467	     14.66570532	      0.00000000	      0.18709952	     -0.11024049	     -2.22751561	      0.34746252	     -0.14661986	     -2.36673533	      0.30738580	     -0.26803874	     -2.36673533	      0.21383604	     -0.26803874	     -1.94907616	      0.17374061	     -0.22480242	     -1.80985643	      0.10690867	     -0.17076253	     -1.67063670	      1.33643316	     -1.24706252	    -12.38877355	      0.00000000	      0.00000000	     27.21331721	     -1.36298772	      1.51300232	      7.72390885	    -13.78047757	     51.08161240	     51.25207450	     45.86106812	     11.68560351	     19.89179373	     -1.48847079	    -14.32683008	     38.78509068	     60.28651282	     53.50764822	      3.97244343	     10.02226121
      0.08474576	     -1.50014127	     -2.78112648	     94.23214308	      0.27784218	      0.88902406	      0.57059811	      7.72901474	     -8.21612114	    -16.65938732	     19.82225481	      0.34596361	     43.14958717	      4.25330981	      0.00000000	      5.39552904	      2.22025135	      3.98386805	     10.47989822	      0.18290873	     40.22000149	     15.03796724	      0.00000000	      0.19155220	     -0.08425570	     -2.12960002	      0.35573158	     -0.11206009	     -2.26270002	      0.31470110	     -0.20485932	     -2.26270002	      0.21892500	     -0.20485932	     -1.86340002	      0.17787537	     -0.17181423	     -1.73030001	      0.10945292	     -0.13051208	     -1.59720001	      1.36823818	     -0.95311737	    -11.84419642	      0.00000000	      0.00000000	     27.17418844	     -1.45878729	      1.78859641	      7.55502812	    -13.92132803	     50.73755674	     51.35284691	     46.20190819	     12.02315375	     19.51411404	     -1.27824991	    -14.05217144	     39.11061996	     59.35775619	     55.64202311	      5.92111549	      9.77929479
      0.10169492	     -1.42365623	     -2.80561424	     93.96678873	      0.27832599	      0.88902846	      0.57013369	      7.93380949	     -8.06695451	    -15.97826909	     19.97299736	      0.34859457	     43.20063352	      4.06524531	      0.00000000	      5.30742260	      2.18822393	      4.71995952	     10.50706524	      0.18338288	     39.98379435	     13.56422944	      0.00000000	      0.19959968	     -0.07490532	     -2.08469721	      0.37067657	     -0.09962407	     -2.21499078	      0.32792232	     -0.18212479	     -2.21499078	      0.22812248	     -0.18212479	     -1.82411006	      0.18534827	     -0.15274692	     -1.69381648	      0.11405126	     -0.11602833	     -1.56352291	      1.42572059	     -0.84734392	    -11.59446046	      0.00000000	      0.00000000	     27.14169649	     -1.52210772	      1.66410194	      7.65113776	    -14.10287646	     51.20034558	     51.44231803	     46.33299918	     11.95762477	     18.41967666	     -1.13241704	    -14.09879418	     39.93528385	     59.06130066	     55.39119299	      5.96801264	      9.77609752
      0.11864407	     -1.28190538	     -2.69581322	     93.41143239	      0.27904626	      0.88921934	      0.57002334	      8.09563353	     -7.87721875	    -15.43964711	     20.17296754	      0.35208470	     43.40261485	      4.45966148	      0.00000000	      5.14827785	      1.87866914	      3.08997649	     10.61777880	      0.18531520	     40.15279578	     14.72336226	      0.00000000	      0.17896025	     -0.05407806	     -1.92455942	      0.33234709	     -0.07192383	     -2.04484438	      0.29401380	     -0.13148541	     -2.04484438	      0.20453367	     -0.13148541	     -1.68398949	      0.16618249	     -0.11027599	     -1.56370453	      0.10225789	     -0.08376692	     -1.44341957	      1.27829520	     -0.61174188	    -10.70382213	      0.00000000	      0.00000000	     27.07234185	     -2.00225242	      1.16278650	      7.46337215	    -14.19372559	     50.47404175	     51.32990422	     47.46022762	     13.08437746	     17.63062942	     -0.51818812	    -13.93403737	     40.87696470	     58.15766967	     56.68370487	      7.71234989	      9.28698351
      0.13559322	     -1.27783918	     -2.68664412	     93.19450561	      0.27951191	      0.88919539	      0.56991457	      8.21233974	     -7.81158756	    -15.03139213	     20.26467821	      0.35368536	     43.68948741	      4.46392707	      0.00000000	      5.14314808	      1.80637703	      2.40232699	     10.74792470	      0.18758667	     40.24373887	     15.09450571	      0.00000000	      0.17983299	     -0.05219415	     -1.87817750	      0.33396785	     -0.06941821	     -1.99556359	      0.29544763	     -0.12690485	     -1.99556359	      0.20553113	     -0.12690485	     -1.64340531	      0.16699292	     -0.10643430	     -1.52601922	      0.10275657	     -0.08084873	     -1.40863312	      1.28452909	     -0.59043061	    -10.44585979	      0.00000000	      0.00000000	     27.07243637	     -2.20340185	      0.92927392	      7.31984566	    -14.17690278	     50.11516132	     51.39691411	     48.56247115	     13.16464506	     16.95248057	     -0.40601590	    -13.91198376	     41.08555454	     57.99825912	     57.48055744	      8.11949775	      9.10280213
      0.15254237	     -1.38760659	     -2.63948926	     92.99500174	      0.28005054	      0.88908552	      0.56977933	      8.19483998	     -7.82129276	    -14.59186025	     20.31172142	      0.35450642	     43.74572024	      4.13062558	      0.00000000	      5.05525708	      1.93153599	      2.65122496	     10.76201099	      0.18783253	     40.22184317	     14.41203125	      0.00000000	      0.18154189	     -0.06611780	     -1.84100475	      0.33714144	     -0.08793668	     -1.95606755	      0.29825516	     -0.16075883	     -1.95606755	      0.20748422	     -0.16075883	     -1.61087916	      0.16857980	     -0.13482743	     -1.49581636	      0.10373303	     -0.10241648	     -1.38075356	      1.29673554	     -0.74793782	    -10.23911613	      0.00000000	      0.00000000	     27.17167250	     -2.24781655	      0.74350561	      7.33208333	    -14.16062341	     50.26008317	     51.42965054	     48.55188943	     13.05279083	     16.45606904	     -0.36290603	    -14.03830602	     41.23597311	     58.13611556	     57.25795354	      8.09990748	      8.84894221
      0.16949153	     -1.69215069	     -2.51653856	     92.53365203	      0.28091308	      0.88898635	      0.56953049	      8.13610997	     -7.92485210	    -13.49485649	     20.51054496	      0.35797654	     43.40471341	      2.88395052	      0.00000000	      4.70823110	      2.32817553	      3.70221476	     10.42713543	      0.18198784	     39.91741045	     12.49525222	      0.00000000	      0.18068054	     -0.10682867	     -1.75059627	      0.33554183	     -0.14208214	     -1.86000854	      0.29684006	     -0.25974324	     -1.86000854	      0.20649979	     -0.25974324	     -1.53177174	      0.16777995	     -0.21784503	     -1.42235947	      0.10324086	     -0.16547762	     -1.31294720	      1.29058302	     -1.20846733	     -9.73629129	      0.00000000	      0.00000000	     27.33909384	     -2.33841220	      0.23530662	      7.41658516	    -14.12741759	     50.79757415	     51.37584729	     48.42187581	     12.62960105	     15.42850336	     -0.23410661	    -14.31828575	     41.63637716	     58.35254188	     56.30910835	      7.74783138	      8.32966312
